TITLE "Astaire e.p."
PERFORMER "SUEMITSU & THE SUEMITH"
REM DISCID 15031303
FILE "Astaire e.p..flac" WAVE
  TRACK 01 AUDIO
    TITLE "Astaire"
    ISRC JPKS00601161
    INDEX 01 00:00:00
  TRACK 02 AUDIO
    TITLE "The End Of Endz"
    ISRC JPKS00601162
    INDEX 00 04:56:30
    INDEX 01 04:58:00
  TRACK 03 AUDIO
    TITLE "Love the One You're With"
    ISRC JPKS00601163
    INDEX 00 08:43:30
    INDEX 01 08:47:00
